<?xml version="1.0" standalone="no"?>
<!DOCTYPE svg PUBLIC "-//W3C//DTD SVG 20010904//EN"
 "http://www.w3.org/TR/2001/REC-SVG-20010904/DTD/svg10.dtd">
<svg version="1.0" xmlns="http://www.w3.org/2000/svg"
 width="169.000000pt" height="299.000000pt" viewBox="0 0 169.000000 299.000000"
 preserveAspectRatio="xMidYMid meet">

<g transform="translate(0.000000,299.000000) scale(0.100000,-0.100000)"
fill="#000000" stroke="none">
<path d="M1416 2974 c-20 -20 -20 -43 -1 -64 13 -14 15 -42 13 -146 l-3 -128
-62 108 c-42 71 -63 119 -63 140 0 37 -15 56 -46 56 -49 0 -59 -65 -13 -87 18
-9 51 -56 105 -150 l79 -138 5 -220 c4 -187 7 -220 20 -220 13 0 15 32 17 217
l2 218 42 72 c107 186 123 210 146 219 30 11 39 34 25 65 -23 49 -99 13 -87
-40 4 -14 -17 -59 -60 -131 l-65 -110 0 128 c0 101 3 133 16 152 15 23 15 27
0 50 -19 29 -47 32 -70 9z"/>
<path d="M1075 2870 c-18 -20 -18 -24 -4 -49 14 -24 14 -39 0 -149 -8 -67 -18
-122 -22 -122 -3 0 -27 51 -52 113 -32 78 -44 120 -40 140 6 32 -11 57 -41 57
-49 0 -63 -58 -22 -85 16 -11 40 -54 71 -127 25 -60 44 -112 42 -115 -9 -8
-207 152 -207 167 0 22 -20 40 -45 40 -27 0 -45 -18 -45 -45 0 -28 19 -45 50
-45 18 0 68 -32 157 -99 l130 -100 79 -192 c72 -174 94 -213 111 -196 3 4 -31
95 -76 204 l-82 198 22 165 c18 139 25 166 43 181 17 14 19 21 11 45 -13 37
-53 44 -80 14z"/>
<path d="M586 2618 c-21 -30 -20 -35 9 -62 17 -16 33 -54 55 -134 16 -62 30
-118 30 -124 0 -7 -40 28 -90 77 -57 56 -90 97 -90 111 0 51 -67 68 -91 23
-14 -27 13 -69 44 -69 15 0 52 -30 112 -91 52 -53 82 -89 70 -87 -169 42 -232
63 -248 84 -22 29 -48 31 -70 6 -22 -24 -21 -45 1 -65 21 -20 43 -22 59 -6 8
8 55 -1 169 -32 l159 -42 150 -148 c130 -129 185 -171 185 -142 0 4 -68 75
-150 158 l-150 151 -44 163 c-35 129 -42 167 -33 182 8 13 8 24 -1 43 -15 33
-55 35 -76 4z"/>
<path d="M251 2208 c-11 -28 8 -62 36 -66 18 -3 180 -198 171 -207 -9 -10
-225 90 -248 115 -32 35 -67 31 -77 -8 -10 -40 8 -57 63 -58 34 -1 81 -15 153
-46 118 -51 122 -47 -56 -69 -72 -9 -99 -9 -122 1 -22 9 -34 9 -50 0 -28 -14
-29 -65 -2 -80 28 -14 38 -13 59 10 15 17 48 24 183 42 l164 21 185 -76 c210
-87 213 -87 217 -67 3 11 -49 36 -192 95 l-196 80 -102 134 c-64 84 -101 141
-99 153 8 47 -70 70 -87 26z"/>
<path d="M62 1718 c-16 -16 -15 -53 2 -67 7 -6 27 -10 43 -9 20 1 60 -16 129
-56 54 -32 103 -62 109 -67 5 -5 -43 -9 -122 -9 -106 0 -133 3 -143 16 -8 8
-25 14 -39 12 -32 -4 -51 -48 -31 -72 16 -20 66 -21 78 -1 7 13 30 15 142 13
l135 -3 -117 -66 c-82 -47 -123 -65 -141 -62 -27 5 -57 -19 -57 -46 0 -10 9
-26 20 -36 17 -15 24 -16 45 -7 14 6 25 20 25 30 0 13 43 43 151 105 l151 87
214 0 c184 0 214 2 214 15 0 13 -31 15 -215 15 l-216 0 -149 85 c-113 65 -149
91 -152 108 -2 16 -11 23 -33 25 -17 2 -36 -3 -43 -10z"/>
<path d="M720 1206 l-195 -82 -163 22 c-110 15 -169 28 -181 38 -34 31 -81 14
-81 -29 0 -40 40 -58 78 -34 14 9 49 8 142 -5 69 -10 126 -18 127 -20 2 -2
-48 -24 -112 -51 -81 -33 -122 -45 -140 -41 -38 10 -65 -9 -65 -45 0 -22 6
-32 26 -41 24 -11 29 -9 52 17 17 20 63 46 136 77 61 25 113 45 115 43 1 -2
-32 -49 -74 -103 -47 -62 -86 -103 -101 -106 -49 -13 -52 -76 -3 -91 26 -9 61
22 57 49 -3 14 28 63 91 146 52 69 100 130 108 136 7 6 99 47 203 90 169 70
208 93 183 107 -5 2 -96 -33 -203 -77z"/>
<path d="M856 931 l-148 -148 -158 -42 c-130 -35 -162 -40 -180 -31 -27 14
-70 -10 -70 -40 0 -46 58 -66 84 -29 10 15 45 30 113 48 175 49 169 54 64 -53
-52 -52 -98 -93 -103 -90 -13 8 -46 -15 -53 -37 -8 -24 19 -59 45 -59 22 0 50
31 50 56 0 11 38 58 90 109 50 49 90 85 90 80 0 -6 -14 -62 -31 -125 -22 -82
-37 -120 -55 -137 -29 -26 -30 -44 -6 -66 42 -38 99 2 73 50 -8 16 0 56 34
183 l44 163 151 152 c137 138 158 165 126 165 -6 0 -78 -67 -160 -149z"/>
<path d="M1187 878 c-13 -29 -50 -118 -83 -197 l-59 -144 -134 -102 c-92 -71
-139 -101 -152 -98 -49 13 -70 -68 -24 -89 21 -9 28 -8 45 7 11 10 20 25 20
34 0 15 198 176 207 168 1 -2 -18 -56 -44 -119 -32 -76 -55 -118 -68 -124 -42
-19 -26 -84 20 -84 31 0 49 24 42 57 -4 20 8 61 40 140 26 62 49 110 52 107 3
-3 13 -58 21 -122 14 -102 14 -120 2 -140 -22 -34 -2 -72 37 -72 47 0 66 45
32 77 -15 14 -24 53 -41 183 l-22 165 81 194 c45 106 78 197 75 202 -12 19
-25 7 -47 -43z"/>
<path d="M1437 864 c-4 -4 -7 -103 -7 -220 l0 -212 -82 -141 c-53 -91 -92
-146 -108 -154 -45 -22 -34 -87 14 -87 31 0 46 19 46 56 0 21 21 69 63 140
l62 108 3 -128 c2 -104 0 -132 -13 -146 -20 -22 -19 -43 3 -63 26 -24 49 -21
68 8 15 23 15 27 0 50 -13 19 -16 51 -16 152 l0 128 65 -110 c44 -75 64 -117
60 -131 -3 -13 3 -31 13 -44 24 -30 69 -21 78 15 7 29 -1 43 -31 55 -15 6 -51
56 -101 142 l-79 133 -5 224 c-5 211 -10 248 -33 225z"/>
</g>
</svg>
